<svg xmlns="http://www.w3.org/2000/svg" width="46" height="46" viewBox="0 0 46 46">
  <g id="Group_20128" data-name="Group 20128" transform="translate(-449.774 -426.598)">
    <circle id="Ellipse_175" data-name="Ellipse 175" cx="23" cy="23" r="23" transform="translate(449.774 426.598)" fill="#ffede4"/>
    <g id="image-gallery" transform="translate(459.114 437.051)">
      <g id="Group_3" data-name="Group 3" transform="translate(0 8.842)">
        <path id="Path_1" data-name="Path 1" d="M20.039,26.119a2.29,2.29,0,0,1-.586-.076L1.7,21.289A2.317,2.317,0,0,1,.076,18.475l2.24-8.35a.574.574,0,0,1,1.109.3L1.186,18.769A1.165,1.165,0,0,0,2,20.181l17.748,4.752a1.143,1.143,0,0,0,1.4-.808l.9-3.323a.574.574,0,0,1,1.109.3l-.9,3.318a2.293,2.293,0,0,1-2.217,1.7Z" transform="translate(0 -9.701)" fill="#e27235" stroke="#e27235" stroke-width="0.5"/>
      </g>
      <g id="Group_4" data-name="Group 4" transform="translate(4.592 0)">
        <path id="Path_2" data-name="Path 2" d="M24.667,20.371H6.3a2.3,2.3,0,0,1-2.3-2.3V4.3A2.3,2.3,0,0,1,6.3,2H24.667a2.3,2.3,0,0,1,2.3,2.3V18.075A2.3,2.3,0,0,1,24.667,20.371ZM6.3,3.148A1.15,1.15,0,0,0,5.148,4.3V18.075A1.15,1.15,0,0,0,6.3,19.223H24.667a1.15,1.15,0,0,0,1.148-1.148V4.3a1.15,1.15,0,0,0-1.148-1.148Z" transform="translate(-4 -2)" fill="#111233" stroke="#111233" stroke-width="0.5"/>
      </g>
      <g id="Group_5" data-name="Group 5" transform="translate(8.037 3.445)">
        <path id="Path_3" data-name="Path 3" d="M9.3,9.593a2.3,2.3,0,1,1,2.3-2.3A2.3,2.3,0,0,1,9.3,9.593Zm0-3.445A1.148,1.148,0,1,0,10.445,7.3,1.15,1.15,0,0,0,9.3,6.148Z" transform="translate(-7 -5)" fill="#111233" stroke="#111233" stroke-width="0.5"/>
      </g>
      <g id="Group_6" data-name="Group 6" transform="translate(4.672 6.372)">
        <path id="Path_4" data-name="Path 4" d="M4.644,18.32a.574.574,0,0,1-.406-.979l5.423-5.423a1.765,1.765,0,0,1,2.435,0l1.614,1.614L18.179,8.17a1.725,1.725,0,0,1,1.311-.62H19.5a1.721,1.721,0,0,1,1.308.6l6.005,7.006a.574.574,0,0,1-.871.747L19.939,8.9a.568.568,0,0,0-.436-.2.61.61,0,0,0-.441.207L14.19,14.75a.572.572,0,0,1-.416.206.553.553,0,0,1-.432-.168L11.284,12.73a.59.59,0,0,0-.812,0L5.049,18.152a.572.572,0,0,1-.405.168Z" transform="translate(-4.07 -7.55)" fill="#111233" stroke="#111233" stroke-width="0.5"/>
      </g>
    </g>
  </g>
</svg>
